<svg width="36" height="36" viewBox="0 0 36 36" fill="none" xmlns="http://www.w3.org/2000/svg">
<rect x="0.5" y="0.5" width="35" height="35" rx="7.5" stroke="#BABABA"/>
<path d="M11.125 14.876H13.7031C13.8408 15.4138 14.1536 15.8904 14.5921 16.2308C15.0306 16.5711 15.5699 16.7559 16.125 16.7559C16.6801 16.7559 17.2194 16.5711 17.6579 16.2308C18.0964 15.8904 18.4092 15.4138 18.5469 14.876H24.875C25.0408 14.876 25.1997 14.8101 25.3169 14.6929C25.4342 14.5757 25.5 14.4168 25.5 14.251C25.5 14.0852 25.4342 13.9263 25.3169 13.8091C25.1997 13.6918 25.0408 13.626 24.875 13.626H18.5469C18.4092 13.0882 18.0964 12.6116 17.6579 12.2712C17.2194 11.9308 16.6801 11.7461 16.125 11.7461C15.5699 11.7461 15.0306 11.9308 14.5921 12.2712C14.1536 12.6116 13.8408 13.0882 13.7031 13.626H11.125C10.9592 13.626 10.8003 13.6918 10.6831 13.8091C10.5658 13.9263 10.5 14.0852 10.5 14.251C10.5 14.4168 10.5658 14.5757 10.6831 14.6929C10.8003 14.8101 10.9592 14.876 11.125 14.876ZM16.125 13.001C16.3722 13.001 16.6139 13.0743 16.8195 13.2117C17.025 13.349 17.1852 13.5442 17.2798 13.7726C17.3745 14.001 17.3992 14.2524 17.351 14.4949C17.3028 14.7373 17.1837 14.9601 17.0089 15.1349C16.8341 15.3097 16.6113 15.4287 16.3689 15.477C16.1264 15.5252 15.8751 15.5005 15.6466 15.4058C15.4182 15.3112 15.223 15.151 15.0857 14.9455C14.9483 14.7399 14.875 14.4982 14.875 14.251C14.875 13.9195 15.0067 13.6015 15.2411 13.3671C15.4755 13.1327 15.7935 13.001 16.125 13.001ZM24.875 21.126H23.5469C23.4092 20.5882 23.0964 20.1116 22.6579 19.7712C22.2194 19.4308 21.6801 19.2461 21.125 19.2461C20.5699 19.2461 20.0306 19.4308 19.5921 19.7712C19.1536 20.1116 18.8408 20.5882 18.7031 21.126H11.125C10.9592 21.126 10.8003 21.1918 10.6831 21.3091C10.5658 21.4263 10.5 21.5852 10.5 21.751C10.5 21.9168 10.5658 22.0757 10.6831 22.1929C10.8003 22.3101 10.9592 22.376 11.125 22.376H18.7031C18.8408 22.9138 19.1536 23.3904 19.5921 23.7308C20.0306 24.0711 20.5699 24.2559 21.125 24.2559C21.6801 24.2559 22.2194 24.0711 22.6579 23.7308C23.0964 23.3904 23.4092 22.9138 23.5469 22.376H24.875C25.0408 22.376 25.1997 22.3101 25.3169 22.1929C25.4342 22.0757 25.5 21.9168 25.5 21.751C25.5 21.5852 25.4342 21.4263 25.3169 21.3091C25.1997 21.1918 25.0408 21.126 24.875 21.126ZM21.125 23.001C20.8778 23.001 20.6361 22.9277 20.4305 22.7903C20.225 22.653 20.0648 22.4578 19.9701 22.2294C19.8755 22.0009 19.8508 21.7496 19.899 21.5071C19.9472 21.2647 20.0663 21.0419 20.2411 20.8671C20.4159 20.6923 20.6387 20.5732 20.8811 20.525C21.1236 20.4768 21.3749 20.5015 21.6034 20.5961C21.8318 20.6908 22.027 20.851 22.1643 21.0565C22.3017 21.2621 22.375 21.5038 22.375 21.751C22.375 22.0825 22.2433 22.4005 22.0089 22.6349C21.7745 22.8693 21.4565 23.001 21.125 23.001Z" fill="#474747"/>
</svg>
