<svg width="99" height="32" viewBox="0 0 99 32" fill="none" xmlns="http://www.w3.org/2000/svg">
<path d="M16.4377 5.95703H21.1707L13.9624 18.6008V24.9092H9.50134V18.6008L2.29297 5.95703H7.02601L11.7319 14.5667L16.4377 5.95703Z" fill="#141414"/>
<path d="M26.916 25.207C24.8487 25.207 23.135 24.5663 21.7749 23.2847C20.4148 21.9852 19.7348 20.2975 19.7348 18.2218C19.7348 16.1641 20.4058 14.4855 21.7477 13.1859C23.1078 11.8864 24.7852 11.2366 26.78 11.2366C28.7385 11.2366 30.3615 11.8503 31.649 13.0776C32.9365 14.287 33.5803 15.8844 33.5803 17.8698C33.5803 18.2308 33.5531 18.6821 33.4987 19.2236H24.1142C24.2593 20.0719 24.5766 20.7127 25.0663 21.1459C25.574 21.579 26.1815 21.7956 26.8888 21.7956C27.4872 21.7956 28.004 21.6512 28.4392 21.3624C28.8745 21.0556 29.1465 20.6495 29.2553 20.1441L33.0363 21.1459C32.6736 22.4815 31.9301 23.4923 30.8058 24.1782C29.6996 24.8641 28.403 25.207 26.916 25.207ZM24.2502 16.5161H29.4185C29.3097 16.0288 29.0195 15.6046 28.548 15.2436C28.0947 14.8646 27.5144 14.675 26.8072 14.675C25.5378 14.675 24.6854 15.2887 24.2502 16.5161Z" fill="#141414"/>
<path d="M48.0429 21.4437C48.188 21.4437 48.3966 21.3985 48.6686 21.3083V24.9634C48.2878 25.1078 47.7528 25.18 47.0637 25.18C45.3228 25.18 44.1441 24.6926 43.5275 23.7179C42.5845 24.6926 41.2335 25.18 39.4745 25.18C38.0963 25.18 36.972 24.819 36.1015 24.097C35.2492 23.375 34.8231 22.3823 34.8231 21.1188C34.8231 19.9455 35.213 18.9979 35.9927 18.2759C36.7725 17.554 37.8243 17.1298 39.1481 17.0034L43.0379 16.6515V16.3807C43.0379 15.8573 42.8565 15.4421 42.4939 15.1353C42.1312 14.8104 41.6688 14.648 41.1066 14.648C40.0911 14.648 39.4836 15.1353 39.2841 16.11L35.3943 15.5685C35.63 14.0523 36.301 12.9513 37.4072 12.2654C38.5315 11.5795 39.8735 11.2366 41.433 11.2366C43.2827 11.2366 44.7334 11.6788 45.7852 12.5632C46.8551 13.4296 47.3901 14.666 47.3901 16.2724V20.7127C47.3901 21.2 47.6077 21.4437 48.0429 21.4437ZM43.0379 19.6568V19.3589L40.481 19.6568C40.0457 19.7109 39.7012 19.8553 39.4473 20.0899C39.1934 20.3065 39.0665 20.5683 39.0665 20.8751C39.0665 21.2361 39.2206 21.5159 39.5289 21.7144C39.8553 21.913 40.2633 22.0032 40.753 21.9852C41.4058 21.9491 41.9498 21.7325 42.3851 21.3354C42.8203 20.9383 43.0379 20.3787 43.0379 19.6568Z" fill="#141414"/>
<path d="M58.4558 11.2366C59.979 11.2366 61.2212 11.6788 62.1824 12.5632C63.1616 13.4477 63.6512 14.6841 63.6512 16.2724V24.9092H59.299V17.5991C59.299 16.7868 59.0995 16.1822 58.7006 15.7851C58.3016 15.3699 57.7576 15.1624 57.0685 15.1624C56.3794 15.1624 55.8263 15.379 55.4092 15.8122C55.0103 16.2454 54.8108 16.8771 54.8108 17.7074V24.9092H50.4585V5.95703H54.8108V12.6174C55.6994 11.6968 56.9144 11.2366 58.4558 11.2366Z" fill="#141414"/>
<path d="M74.9432 11.5073H79.2954V24.9092H74.9432V23.7992C74.0546 24.7197 72.8396 25.18 71.2982 25.18C69.8475 25.18 68.6143 24.7197 67.5988 23.7992C66.6014 22.8606 66.1027 21.552 66.1027 19.8733V11.5073H70.455V18.9257C70.455 19.7019 70.6545 20.2885 71.0534 20.6856C71.4524 21.0646 71.9964 21.2541 72.6855 21.2541C73.3746 21.2541 73.9186 21.0376 74.3176 20.6044C74.7347 20.1712 74.9432 19.5394 74.9432 18.7091V11.5073Z" fill="#141414"/>
<path d="M90.0725 11.2366C91.9222 11.2366 93.4908 11.8954 94.7783 13.213C96.0659 14.5126 96.7096 16.1822 96.7096 18.2218C96.7096 20.2253 96.0749 21.8859 94.8055 23.2035C93.5361 24.5211 91.9675 25.18 90.0997 25.18C88.5039 25.18 87.1982 24.6926 86.1827 23.7179V24.9092H81.8305V5.95703H86.1827V12.6715C87.1801 11.7149 88.4767 11.2366 90.0725 11.2366ZM89.202 21.4166C90.0362 21.4166 90.7435 21.1278 91.3238 20.5502C91.9041 19.9546 92.1942 19.1784 92.1942 18.2218C92.1942 17.2471 91.9041 16.471 91.3238 15.8934C90.7616 15.2977 90.0544 14.9999 89.202 14.9999C88.3316 14.9999 87.6062 15.2977 87.0259 15.8934C86.4638 16.471 86.1827 17.2471 86.1827 18.2218C86.1827 19.1784 86.4638 19.9546 87.0259 20.5502C87.6062 21.1278 88.3316 21.4166 89.202 21.4166Z" fill="#141414"/>
</svg>
